<?xml version="1.0" encoding="UTF-8"?>
<svg id="Layer_2" data-name="Layer 2" xmlns="http://www.w3.org/2000/svg" xmlns:xlink="http://www.w3.org/1999/xlink" viewBox="0 0 135.37 40.6">
  <defs>
    <style>
      .cls-1 {
        fill: url(#linear-gradient-2);
      }

      .cls-2 {
        fill: #0064aa;
      }

      .cls-3 {
        fill: url(#linear-gradient-3);
      }

      .cls-4 {
        clip-path: url(#clippath-1);
      }

      .cls-5 {
        clip-rule: evenodd;
        fill: none;
      }

      .cls-6 {
        clip-path: url(#clippath-2);
      }

      .cls-7 {
        fill: #0064c8;
      }

      .cls-8 {
        fill: url(#linear-gradient);
      }

      .cls-9 {
        clip-path: url(#clippath);
      }
    </style>
    <clipPath id="clippath">
      <path class="cls-5" d="M53.59,39.41h58.97c9.25,0,16.81-7.57,16.81-16.81h0c0-9.25-7.57-16.81-16.81-16.81h-58.94l-1.03-1.19h59.97c9.9,0,18,8.1,18,18h0c0,9.9-8.1,18-18,18h-60l1.03-1.19Z"/>
    </clipPath>
    <linearGradient id="linear-gradient" x1="130.57" y1="22.6" x2="52.57" y2="22.6" gradientUnits="userSpaceOnUse">
      <stop offset="0" stop-color="#005baa"/>
      <stop offset="1" stop-color="#9fc743"/>
    </linearGradient>
    <clipPath id="clippath-1">
      <path class="cls-5" d="M18,4.6h33.13l1.03,1.19H18C8.75,5.78,1.19,13.35,1.19,22.6h0c0,9.25,7.57,16.81,16.81,16.81h34.12l-1.03,1.19H18C8.1,40.6,0,32.5,0,22.6h0C0,12.7,8.1,4.6,18,4.6"/>
    </clipPath>
    <linearGradient id="linear-gradient-2" x1="52.16" x2="0" y2="22.6" xlink:href="#linear-gradient"/>
    <clipPath id="clippath-2">
      <path class="cls-5" d="M47.16,27.46c0-.46-.08-.87-.23-1.24-.15-.36-.38-.66-.67-.91-.29-.25-.67-.43-1.13-.57-.46-.13-1.06-.2-1.79-.2h-2.38v5.64h2.9c.56,0,1.03-.06,1.42-.18.38-.11.71-.29.99-.52.28-.23.5-.51.66-.86.16-.34.24-.73.24-1.17M46.13,18.96c0-.4-.06-.75-.18-1.07-.12-.31-.3-.58-.55-.79-.25-.21-.55-.37-.92-.48-.37-.11-.87-.17-1.49-.17h-2.03v5.14h2.24c.58,0,1.04-.07,1.39-.21.34-.14.63-.32.86-.56s.4-.52.51-.84c.11-.32.17-.66.17-1.02ZM8.94,19.14c.79.03,1.52.3,2.13.87.62.58.83,1.59.71,2.31-.35,1.97.03,3.31,1.44,4.86,1.41,1.55,3,2.4,5.19,2.53,1.36.08,2.36-.33,3.16-1.16.78-.82,1.16-1.58,1.33-2.71.11-.73.15-1.33-.05-1.79-.2-.45-.4-1-.8-1.46-1.15.48-1.4.75-2.4.88-.95.12-1.85.23-2.75-.38-.7-.48-1.17-1.25-1.18-2.07,0-1,.97-1.35,1.55-1.35,1.39,0,2.23-.16,3.29-.75,1.07-.61,1.79-1.28,1.86-2.31.09-1.35-.59-1.69-2.26-1.55-1.22.1-2.32.41-3.15.88-.74.41-1.08.87-1.08,1.48,0,.32-.21.87-.41,1.11-.21.25-.94.57-1.29.25-.48-.45-.59-.53-.92-1.22-.35-.73-.51-.99-.79-1.85-.36-1.1.08-1.89.95-2.4,1.84-1.07,3.02-1.26,4.91-1.49,1.75-.22,3.77.58,5.03,1.83,1.25,1.25,1.93,2.79,1.93,4.56,0,.56-.13,1.2-.35,1.76-.22.55-.4.76-.72,1.33l1.1,1.22c.16-.22.47-.42.73-.3,1.17.52,2.09.75,2.38.84.2.06.57-.14.87-.3.34-.19.44-.24.82-.49v-6.21s-3.59.03-3.59.03c-.12,0-.23-.04-.32-.13-.09-.09-.13-.19-.13-.32v-1.79c0-.12.04-.23.13-.32.09-.09.19-.13.32-.13,5.55.01,11.09.07,16.63.07,1.21,0,2.24.1,3.08.31.84.2,1.55.51,2.12.92.58.41,1.02.93,1.32,1.57.31.63.46,1.37.46,2.23,0,.48-.06.93-.18,1.35-.12.42-.3.81-.53,1.15-.24.35-.52.65-.87.92-.34.27-.73.48-1.16.64.56.1,1.08.28,1.56.54.48.26.89.59,1.24.99.36.4.63.88.84,1.42.2.54.31,1.15.31,1.82s-.1,1.34-.29,1.92c-.19.57-.46,1.08-.8,1.51-.34.44-.75.81-1.22,1.13-.48.32-1,.57-1.57.78-.57.2-1.18.36-1.83.45-.65.1-1.37.15-2.16.15h-5.26c-.33,0-.62-.1-.85-.3-.23-.2-.34-.52-.34-.97v-15.9h-3.22s0,16.23,0,16.23c0,.45-.5,1.02-.93,1.02h-1.74c-.44,0-.99-.55-.99-.94v-6.06c-1.54-.21-2.23-.51-3.47-1.01.15.25.25.94.21,1.25-.24,1.85-.95,3.44-2.52,4.78-1.55,1.33-3.23,1.75-5.44,1.75-2.66,0-4.99-1.33-7.02-4.08-2.02-2.73-2.95-6.02-2.95-9.89Z"/>
    </clipPath>
    <linearGradient id="linear-gradient-3" x1="51.33" y1="22.46" x2="8.94" y2="22.46" xlink:href="#linear-gradient"/>
  </defs>
  <g id="_2_copy_3" data-name="2 copy 3">
    <g>
      <g class="cls-9">
        <rect class="cls-8" x="52.57" y="4.6" width="78" height="36"/>
      </g>
      <g class="cls-4">
        <rect class="cls-1" y="4.6" width="52.16" height="36"/>
      </g>
      <path class="cls-2" d="M121.24,31.13c0,.45-.03.79-.08,1.03-.06.24-.13.41-.22.5-.09.1-.22.19-.4.26-.18.08-.39.15-.63.2-.24.06-.5.1-.78.13-.28.03-.56.05-.85.05-.76,0-1.43-.1-1.99-.29-.56-.19-1.02-.49-1.39-.89-.37-.4-.64-.91-.81-1.53-.17-.61-.26-1.34-.26-2.17v-6.99h-1.66c-.19,0-.34-.12-.44-.36-.1-.24-.16-.64-.16-1.21,0-.3.01-.55.04-.75.03-.2.07-.37.12-.49.05-.11.11-.2.19-.25.07-.05.17-.08.27-.08h1.64v-3.06c0-.1.03-.19.08-.28.06-.08.16-.15.31-.2.15-.06.35-.1.6-.13.25-.03.56-.04.93-.04s.69.01.94.04c.25.03.45.07.6.13.14.06.25.13.3.2.06.08.09.18.09.28v3.06h2.96c.1,0,.19.03.27.08.08.05.14.14.19.25.05.12.09.28.11.49.03.2.04.45.04.75,0,.56-.05.97-.15,1.21-.1.24-.25.36-.44.36h-2.98v6.41c0,.75.11,1.31.35,1.68.24.37.65.56,1.25.56.2,0,.39-.02.55-.05.16-.04.31-.08.43-.13.13-.04.24-.08.32-.12.08-.04.17-.05.24-.05.06,0,.12.02.18.05.05.04.1.1.13.21.03.1.06.25.08.43.03.19.04.42.04.71M110.79,20.09c0,.37-.01.67-.03.9-.02.24-.05.42-.09.55-.04.13-.1.22-.16.28-.07.05-.15.07-.26.07-.08,0-.17-.02-.28-.05-.1-.04-.21-.07-.34-.11-.13-.04-.27-.08-.42-.11-.16-.04-.32-.05-.51-.05-.21,0-.43.04-.64.13-.21.09-.44.22-.67.41-.23.18-.47.43-.72.73-.25.31-.52.68-.8,1.13v8.52c0,.1-.03.19-.09.27-.06.08-.16.14-.31.19-.15.05-.34.09-.58.11-.25.03-.56.04-.93.04s-.69-.01-.93-.04c-.24-.03-.44-.07-.59-.11-.15-.05-.26-.11-.31-.19-.06-.08-.09-.17-.09-.27v-13.66c0-.1.03-.19.08-.27.05-.08.14-.14.27-.19.14-.05.3-.09.51-.11.21-.03.48-.04.79-.04.33,0,.6.01.81.04.21.03.38.07.5.11.11.05.2.11.25.19.05.08.08.17.08.27v1.7c.36-.51.69-.93,1.01-1.26.32-.33.62-.6.9-.79.29-.19.57-.33.86-.4.28-.08.57-.11.86-.11.13,0,.28,0,.43.02.15.02.31.04.48.08.16.04.31.08.43.12.13.05.21.09.27.15.05.05.09.11.12.17.03.06.05.15.07.26.02.1.04.27.05.48.01.21.02.5.02.87ZM94.38,26.66h-1.47c-.62,0-1.15.05-1.59.14-.44.09-.79.23-1.07.42-.28.18-.48.4-.6.66-.13.26-.19.56-.19.89,0,.57.18,1.02.54,1.35.36.33.86.49,1.5.49.54,0,1.03-.14,1.49-.41.45-.28.91-.68,1.38-1.21v-2.32ZM98.17,32.52c0,.14-.05.25-.15.33-.1.08-.27.14-.49.18-.22.04-.54.05-.98.05-.46,0-.79-.02-1-.05-.21-.04-.36-.09-.44-.18-.09-.08-.13-.19-.13-.33v-1.09c-.56.6-1.2,1.07-1.92,1.4-.72.33-1.51.5-2.39.5-.72,0-1.39-.09-2-.28-.61-.19-1.13-.47-1.57-.84-.44-.38-.79-.84-1.03-1.38-.25-.55-.37-1.2-.37-1.93,0-.8.16-1.49.46-2.07.31-.59.78-1.07,1.39-1.46.62-.38,1.38-.66,2.3-.85.91-.18,1.98-.28,3.19-.28h1.33v-.83c0-.43-.04-.8-.13-1.13-.08-.32-.23-.59-.43-.8-.2-.21-.46-.37-.79-.48-.33-.1-.74-.15-1.23-.15-.64,0-1.22.07-1.72.21-.51.14-.95.3-1.34.48-.39.17-.71.33-.97.48-.26.14-.47.21-.63.21-.11,0-.21-.04-.3-.1-.09-.07-.16-.18-.21-.31-.06-.13-.1-.3-.13-.49-.03-.19-.05-.41-.05-.64,0-.32.03-.57.08-.75.05-.18.15-.34.29-.5.15-.15.39-.31.75-.49.36-.18.77-.34,1.25-.5.48-.16,1-.28,1.57-.38.57-.1,1.15-.15,1.75-.15,1.07,0,1.98.1,2.75.31.76.21,1.38.53,1.87.97.49.43.85.99,1.08,1.68.22.68.33,1.49.33,2.43v9.19ZM84.07,31.13c0,.45-.03.79-.08,1.03-.06.24-.13.41-.22.5-.09.1-.22.19-.4.26-.18.08-.39.15-.63.2-.24.06-.5.1-.78.13-.28.03-.56.05-.85.05-.76,0-1.43-.1-1.99-.29-.56-.19-1.02-.49-1.39-.89-.37-.4-.64-.91-.81-1.53-.17-.61-.26-1.34-.26-2.17v-6.99h-1.66c-.19,0-.34-.12-.44-.36-.1-.24-.16-.64-.16-1.21,0-.3.01-.55.04-.75.03-.2.07-.37.12-.49.05-.11.11-.2.19-.25.07-.05.17-.08.27-.08h1.64v-3.06c0-.1.03-.19.08-.28.06-.08.16-.15.31-.2.15-.06.35-.1.6-.13.25-.03.56-.04.93-.04s.69.01.94.04c.25.03.45.07.6.13.14.06.25.13.3.2.06.08.09.18.09.28v3.06h2.96c.1,0,.19.03.27.08.08.05.14.14.19.25.05.12.09.28.11.49.03.2.04.45.04.75,0,.56-.05.97-.15,1.21-.1.24-.25.36-.44.36h-2.98v6.41c0,.75.11,1.31.35,1.68.24.37.65.56,1.25.56.2,0,.39-.02.55-.05.16-.04.31-.08.43-.13.13-.04.24-.08.32-.12.08-.04.17-.05.24-.05.06,0,.12.02.18.05.05.04.1.1.13.21.03.1.06.25.08.43.03.19.04.42.04.71ZM73.15,27.05c0,1.04-.19,1.95-.58,2.74-.39.78-.91,1.44-1.58,1.96-.67.52-1.44.92-2.33,1.19-.89.27-1.84.4-2.85.4-.68,0-1.32-.06-1.91-.17-.59-.11-1.1-.25-1.55-.41-.45-.16-.83-.32-1.13-.5-.3-.18-.52-.33-.65-.46-.13-.14-.22-.33-.28-.58s-.08-.61-.08-1.08c0-.32.01-.58.03-.79.02-.21.05-.39.1-.52.05-.13.11-.22.18-.28.08-.06.17-.08.27-.08.14,0,.34.08.61.26.26.17.6.36,1,.56.41.2.9.39,1.47.56.56.17,1.22.26,1.97.26.49,0,.93-.06,1.32-.17.39-.12.72-.28.99-.5.27-.21.48-.48.62-.79.14-.31.21-.66.21-1.05,0-.45-.12-.84-.37-1.15-.25-.32-.56-.61-.96-.86-.39-.25-.84-.49-1.34-.71-.5-.22-1.01-.45-1.55-.69-.53-.25-1.05-.52-1.55-.84-.5-.31-.95-.68-1.34-1.11-.4-.43-.72-.95-.96-1.54-.25-.59-.37-1.3-.37-2.13,0-.95.18-1.78.53-2.5.35-.72.83-1.31,1.42-1.79.6-.48,1.3-.83,2.11-1.07.81-.24,1.67-.35,2.58-.35.46,0,.93.04,1.41.11.47.07.91.17,1.32.29.41.13.77.26,1.09.41.31.16.52.28.63.39s.17.19.2.26c.04.07.07.17.09.29.03.11.04.26.05.44.01.18.02.4.02.66,0,.29,0,.54-.02.75-.02.2-.04.37-.08.51-.04.13-.09.23-.15.29-.07.06-.16.09-.27.09s-.29-.07-.53-.21c-.25-.14-.55-.3-.9-.47-.36-.17-.77-.32-1.24-.45-.47-.14-.98-.21-1.55-.21-.44,0-.82.05-1.15.16-.32.1-.6.26-.81.44-.22.19-.39.41-.49.68-.11.27-.16.55-.16.84,0,.44.12.82.36,1.14.24.32.56.61.97.86.4.25.86.48,1.37.7.51.22,1.03.45,1.56.69.53.25,1.06.52,1.56.84.51.31.97.68,1.37,1.12.4.43.72.94.97,1.53.25.58.37,1.27.37,2.07Z"/>
      <g class="cls-6">
        <rect class="cls-3" x="8.94" y="11.59" width="42.39" height="21.75"/>
      </g>
    </g>
    <g>
      <polygon class="cls-7" points="125.76 .6 127.26 .6 127.26 4.6 128.02 4.6 128.02 .6 129.52 .6 129.52 0 125.76 0 125.76 .6"/>
      <path class="cls-7" d="M134.29,0l-1.48,3.69h-.03l-1.44-3.69h-1.08v4.6h.69v-2.6c0-.16,0-.33,0-.5,0-.17-.01-.32-.02-.47,0-.15-.02-.26-.02-.35h.03l1.51,3.91h.65l1.55-3.9h.03c0,.09-.01.21-.02.35,0,.14-.01.29-.02.45,0,.16-.01.32-.01.47v2.63h.74V0h-1.08Z"/>
    </g>
  </g>
</svg>
